<?xml version="1.0" standalone="no"?>
<!DOCTYPE svg PUBLIC "-//W3C//DTD SVG 20010904//EN"
 "http://www.w3.org/TR/2001/REC-SVG-20010904/DTD/svg10.dtd">
<svg version="1.0" xmlns="http://www.w3.org/2000/svg"
 width="260.000000pt" height="260.000000pt" viewBox="0 0 260.000000 260.000000"
 preserveAspectRatio="xMidYMid meet">
<metadata>
Created by potrace 1.11, written by Peter Selinger 2001-2013
</metadata>
<g transform="translate(0.000000,260.000000) scale(0.100000,-0.100000)"
fill="#000000" stroke="none">
<path d="M564 2285 c-183 -64 -266 -168 -266 -335 0 -49 7 -150 18 -235 2 -16
6 -66 9 -110 4 -44 8 -96 10 -115 7 -80 -41 -154 -109 -167 -31 -7 -42 -14
-44 -29 -3 -18 4 -22 37 -28 53 -8 98 -48 112 -98 10 -38 7 -154 -7 -263 -13
-112 -20 -215 -18 -287 3 -98 33 -166 100 -228 75 -69 249 -141 249 -102 0 6
-24 25 -53 40 -99 52 -153 123 -180 233 -10 41 -9 235 1 284 9 40 20 182 20
250 0 91 -21 137 -78 170 -23 14 -50 25 -61 26 -11 0 0 9 26 20 61 27 98 65
111 114 11 38 13 210 3 285 -6 51 -6 251 0 280 3 14 9 38 12 55 20 93 79 172
156 211 47 24 59 45 27 49 -7 1 -41 -8 -75 -20z"/>
<path d="M1960 2295 c-10 -12 -5 -18 31 -33 86 -37 121 -79 161 -191 16 -45
19 -81 19 -181 0 -69 -3 -136 -6 -150 -3 -14 -8 -82 -10 -152 -5 -135 2 -171
41 -224 21 -28 37 -38 99 -59 17 -6 14 -9 -19 -20 -51 -18 -102 -69 -113 -114
-10 -39 -10 -125 1 -236 14 -143 14 -309 1 -373 -24 -111 -85 -191 -183 -239
-97 -47 -40 -64 64 -18 215 95 259 209 230 590 -20 248 -14 298 36 340 15 13
45 26 67 30 26 4 41 13 44 25 4 15 -6 22 -51 37 -86 28 -97 50 -96 186 0 104
12 264 19 278 12 20 16 233 5 278 -25 104 -115 183 -251 221 -41 11 -74 20
-75 20 -1 0 -7 -7 -14 -15z"/>
<path d="M650 2045 c0 -8 17 -19 43 -26 55 -16 65 -29 62 -86 -2 -27 -6 -122
-10 -213 -3 -91 -8 -194 -10 -230 -4 -59 -8 -147 -20 -460 -13 -322 -17 -396
-26 -406 -5 -6 -27 -16 -50 -23 -75 -23 -40 -34 108 -35 128 -1 140 0 132 16
-5 9 -28 19 -51 23 -58 10 -67 19 -63 68 2 23 6 87 10 142 4 55 8 118 10 140
2 22 7 85 10 140 4 55 8 116 10 135 2 19 6 78 10 130 4 52 8 111 10 130 2 19
6 79 10 132 4 53 8 105 10 115 2 10 4 38 4 62 1 24 4 42 7 38 3 -3 41 -142 84
-309 43 -167 90 -346 104 -398 15 -52 29 -104 31 -115 21 -90 125 -429 134
-434 6 -4 30 -5 53 -2 l42 6 34 105 c29 92 157 519 167 560 54 204 172 610
178 610 4 0 7 -44 8 -97 1 -54 2 -120 4 -148 10 -192 18 -352 20 -425 1 -47 6
-173 11 -280 9 -232 9 -278 1 -286 -4 -4 -30 -12 -59 -19 -31 -6 -54 -18 -56
-26 -2 -12 27 -14 180 -12 101 1 185 2 187 3 2 0 -2 7 -9 15 -7 8 -28 17 -47
21 -22 4 -37 14 -42 28 -5 11 -9 156 -10 321 -1 165 -3 458 -4 650 -2 193 0
361 3 375 4 19 15 27 45 35 38 9 54 20 55 38 0 4 -72 7 -160 7 -88 0 -160 -2
-160 -4 0 -8 -192 -744 -251 -961 -33 -121 -67 -248 -76 -283 -9 -35 -19 -59
-23 -55 -6 7 -44 140 -55 192 -7 33 -25 110 -56 236 -17 72 -33 139 -35 150
-2 11 -17 74 -33 140 -16 66 -53 225 -82 353 l-53 232 -168 0 c-141 0 -168 -2
-168 -15z"/>
</g>
</svg>
